<?xml version="1.0" encoding="UTF-8"?>
<svg id="Layer_1" xmlns="http://www.w3.org/2000/svg" viewBox="0 0 904.27 695.98">
  <defs>
    <style>
      .cls-1 {
        fill: #2e3192;
      }

      .cls-2 {
        fill: #27aae1;
      }

      .cls-3 {
        fill: #1c75bc;
      }
    </style>
  </defs>
  <path class="cls-1" d="M9.6,611.69L411.64,21.96c19.96-29.28,61.02-29.28,80.99,0l402.05,589.73c23.95,35.12.33,84.29-40.49,84.29H50.09c-40.82,0-64.44-49.16-40.49-84.29Z"/>
  <path class="cls-3" d="M101.9,629.27L420.09,162.54c15.8-23.17,48.3-23.17,64.1,0l318.19,466.73c18.95,27.8.26,66.71-32.05,66.71H133.95c-32.31,0-51-38.91-32.05-66.71Z"/>
  <path class="cls-2" d="M232.93,653.82l199.14-292.11c9.89-14.5,30.23-14.5,40.11,0l199.14,292.11c11.86,17.4.16,41.75-20.06,41.75H252.99c-20.22,0-31.92-24.35-20.06-41.75Z"/>
</svg>