<svg width="768" height="718" viewBox="0 0 768 718" fill="none" xmlns="http://www.w3.org/2000/svg">
<mask id="mask0_15_4" style="mask-type:luminance" maskUnits="userSpaceOnUse" x="0" y="80" width="768" height="559">
<path d="M768 80H0V638.971H768V80Z" fill="white"/>
</mask>
<g mask="url(#mask0_15_4)">
<path d="M538.453 402.344L518.964 266.975C501.025 142.376 390.156 59.2521 275.626 84.5346C264.485 86.9934 253.591 90.62 243.102 95.3612L115.281 153.135C107.847 156.495 110.596 168.506 118.626 167.746L136.049 166.099C226.661 157.53 311.949 213.366 346.725 304.021L427.659 515.008C469.007 622.793 586.582 669.928 683.159 617.435L765.489 572.686C770.702 569.853 767.774 561.326 762.108 562.838C658.328 590.543 554.858 516.292 538.453 402.344Z" fill="#213594"/>
<path d="M482.973 402.344L463.484 266.975C445.544 142.376 334.675 59.2521 220.146 84.5346C209.004 86.9934 198.111 90.62 187.622 95.3612L83.7724 142.299C72.0707 147.588 76.3993 166.493 89.0378 165.298C174.609 157.206 255.153 209.936 287.994 295.549L372.179 515.008C413.526 622.793 531.101 669.928 627.678 617.435L710.008 572.686C715.222 569.853 712.294 561.326 706.627 562.838C602.847 590.543 499.377 516.292 482.973 402.344Z" fill="#1E73BB"/>
<path d="M428.504 402.363L409.015 266.994C391.076 142.395 280.207 59.2713 165.678 84.5538C154.536 87.0126 143.643 90.6392 133.153 95.3804L5.33178 153.154C-2.10258 156.514 0.647553 168.525 8.67753 167.765L26.1011 166.118C116.712 157.549 202.001 213.385 236.776 304.04L317.711 515.027C359.058 622.812 476.633 669.947 573.21 617.454L655.54 572.705C660.754 569.872 657.825 561.346 652.159 562.857C548.379 590.562 444.909 516.311 428.504 402.363Z" fill="#24A8E0"/>
</g>
</svg>
